<?xml version="1.0" encoding="UTF-8" standalone="no"?>
<!-- Created with Inkscape (http://www.inkscape.org/) -->

<svg
   width="2600mm"
   height="1360mm"
   viewBox="0 0 2600 1360"
   version="1.1"
   id="svg1"
   xml:space="preserve"
   xmlns:inkscape="http://www.inkscape.org/namespaces/inkscape"
   xmlns:sodipodi="http://sodipodi.sourceforge.net/DTD/sodipodi-0.dtd"
   xmlns="http://www.w3.org/2000/svg"
   xmlns:svg="http://www.w3.org/2000/svg"><sodipodi:namedview
     id="namedview1"
     pagecolor="#ffffff"
     bordercolor="#000000"
     borderopacity="0.25"
     inkscape:showpageshadow="2"
     inkscape:pageopacity="0.0"
     inkscape:pagecheckerboard="0"
     inkscape:deskcolor="#d1d1d1"
     inkscape:document-units="mm"><inkscape:page
       x="0"
       y="0"
       width="2600"
       height="1359.9999"
       id="page2"
       margin="0"
       bleed="0" /></sodipodi:namedview><defs
     id="defs1" /><g
     inkscape:label="Слой 1"
     inkscape:groupmode="layer"
     id="layer1"><path
       style="fill:#000000;stroke-width:0.264583"
       id="path1"
       d="m 870.60082,280.17872 c -3.6011,1.85513 -6.9968,4.0744 -10.353,6.33369 -4.8643,3.32109 -9.5481,6.89536 -14.2339,10.46094 -5.3339,4.05743 -10.5311,8.28673 -15.688,12.5652 -6.1733,5.05047 -12.01525,10.48061 -17.75706,16.0108 -6.23764,6.00014 -12.24552,12.2301 -18.25937,18.45223 -6.67331,6.92544 -13.26118,13.93227 -19.86284,20.92585 -6.59314,7.02662 -13.19589,14.04408 -19.7994,21.061 -6.91764,7.31601 -13.9019,14.56856 -20.89158,21.81566 -8.12124,8.36544 -16.12801,16.84115 -24.1107,25.33859 -10.0069,10.76212 -19.85032,21.67405 -29.64795,32.62641 -10.82504,12.04686 -21.55153,24.18163 -32.37845,36.22686 -11.17099,12.24957 -22.30582,24.52905 -33.27075,36.96366 -10.56165,12.0324 -21.197,23.9992 -31.87982,35.9241 -10.83175,12.299 -21.88659,24.3941 -33.02923,36.411 -11.15793,12.0288 -22.39799,23.9809 -33.59805,35.9703 -10.75716,11.5225 -21.44499,23.1096 -32.11229,34.7153 -10.32028,11.1662 -20.51367,22.448 -30.68084,33.7535 -9.86296,10.9862 -19.57315,22.1077 -29.26381,33.2457 -9.37783,10.8556 -18.75387,21.7122 -28.19385,32.5137 -9.49897,10.8537 -18.94743,21.7506 -28.29855,32.7318 -9.30961,11.0479 -18.69739,22.0293 -28.03774,33.0511 -9.02548,10.6863 -17.90731,21.4924 -26.78149,32.3043 -8.58923,10.4684 -16.85531,21.1927 -24.84484,32.124 -7.51357,10.1856 -14.65257,20.6384 -21.62967,31.1963 -6.26076,9.4878 -12.1744,19.1972 -17.98058,28.9676 -5.3515,8.8236 -10.11911,17.9726 -14.48298,27.3185 -3.78159,8.12239 -6.80469,16.56159 -9.33257,25.14859 -2.1949,7.3157 -3.53617,14.7928 -3.76687,22.4218 0.21503,6.5803 1.2343,13.3249 5.15331,18.8355 1.04056,1.4631 2.42132,2.6516 3.63199,3.9776 8.10499,6.4795 17.84001,6.8137 27.70797,6.0379 8.85617,-0.9267 17.50399,-3.1186 26.12325,-5.2702 9.31722,-2.3568 18.44743,-5.3774 27.55141,-8.4394 10.16431,-3.4476 20.15879,-7.3598 30.10236,-11.3922 11.64637,-4.7084 23.15917,-9.7365 34.64005,-14.8324 12.92811,-5.7601 25.80502,-11.6279 38.58996,-17.6993 14.43756,-6.9101 28.84857,-13.8746 43.19044,-20.98109 16.25042,-8.1687 32.42065,-16.4952 48.50991,-24.9766 16.32418,-8.5869 32.37479,-17.6834 48.31782,-26.9551 17.17049,-10.0455 34.13816,-20.4305 51.064,-30.8811 17.6261,-10.9239 35.10258,-22.0859 52.53033,-33.3226 17.7175,-11.4219 35.33115,-23.0023 52.88076,-34.68 17.83435,-11.9484 35.60722,-23.9882 53.40603,-35.9895 18.40821,-12.3966 36.78871,-24.8344 55.14172,-37.3126 18.37037,-12.5297 36.80237,-24.9681 55.26207,-37.3655 18.9758,-12.814 38.2327,-25.2017 57.4732,-37.6123 19.3132,-12.4127 38.6129,-24.8462 58.0162,-37.1179 18.98368,-11.9536 38.05698,-23.7639 57.14668,-35.5471 18.6013,-11.4539 37.3462,-22.6715 56.0311,-33.9878 18.7031,-11.4247 37.4686,-22.7438 56.2943,-33.9651 19.7049,-11.8404 39.4595,-23.5975 59.2287,-35.3302 19.1505,-11.2951 38.1772,-22.79742 57.2097,-34.28932 19.1076,-11.49739 38.1817,-23.0503 57.2802,-34.56274 20.0142,-12.06983 40.0974,-24.02439 60.1573,-36.01768 20.0616,-12.07634 40.1212,-24.15607 60.1773,-36.24158 20.7013,-12.41971 41.4372,-24.78169 62.1641,-37.15862 19.803,-11.88944 39.6612,-23.68645 59.5238,-35.47599 19.8984,-11.72304 39.9214,-23.23404 60.1045,-34.45957 21.1851,-11.67186 42.5896,-22.93895 63.9758,-34.23605 20.1301,-10.62745 40.3146,-21.15093 60.5696,-31.53837 18.6532,-9.49602 37.3509,-18.90304 56.1662,-28.0739 18.1536,-8.78288 36.4101,-17.35251 54.7263,-25.79038 17.3244,-7.96734 34.7154,-15.78895 52.1582,-23.49342 16.3245,-7.20532 32.6539,-14.39932 48.9803,-21.60035 14.6613,-6.46119 29.3481,-12.863763 44.0564,-19.217173 13.3832,-5.7927 26.912,-11.23834 40.4551,-16.64341 12.6622,-5.09503 25.4938,-9.74558 38.3323,-14.37181 11.854,-4.26826 23.788,-8.30823 35.7443,-12.27868 10.7448,-3.59585 21.5674,-6.94843 32.452,-10.09364 9.3216,-2.74331 18.7285,-5.2165 28.4159,-6.16843 5.5755,-0.39026 11.1649,-0.34864 16.6246,0.91245 0.3452,0.12399 0.7278,0.17259 1.0358,0.37198 0.1401,0.0908 -0.3613,0.0674 -0.5002,-0.0252 -1.5642,-1.04314 -3.475,-1.794 -4.5454,-3.33962 -3.3385,-4.82043 -2.9633,-6.5274 -2.8723,-10.85441 -3.6719,4.74702 -8.2163,8.72555 -12.7858,12.57833 -8.4275,6.98739 -17.2738,13.45087 -26.1907,19.79444 -10.266,7.57795 -21.3535,13.86622 -32.6292,19.78889 -14.8892,7.67621 -30.0749,14.75394 -45.2491,21.84298 -15.3801,7.13633 -30.6796,14.443123 -45.9512,21.808093 -14.279,6.86475 -28.5262,13.79897 -42.6582,20.96208 -14.6698,7.52161 -29.0799,15.53052 -43.4378,23.62651 -15.8036,8.90419 -31.5268,17.94628 -47.2033,27.07187 -16.0462,9.37946 -32.0074,18.90098 -47.8996,28.5385 -15.8331,9.61045 -31.5519,19.40729 -47.2887,29.17403 -15.0018,9.20116 -29.7806,18.75158 -44.5134,28.37488 -14.3685,9.39568 -28.6523,18.91981 -42.9594,28.40847 -14.0334,9.36001 -28.1424,18.60584 -42.2353,27.87566 -14.2717,9.36335 -28.6336,18.58808 -42.9351,27.9055 -13.9222,9.03289 -27.8466,18.0626 -41.7981,27.05025 -13.8568,8.91006 -27.7197,17.81183 -41.7228,26.4908 -15.8848,9.68454 -31.8757,19.19449 -47.9016,28.64345 -16.7103,9.88414 -33.4798,19.66764 -50.3476,29.28051 -17.3126,9.79749 -34.6905,19.47846 -52.0762,29.14526 -17.0194,9.37828 -34.1485,18.55534 -51.2414,27.79849 -17.1456,9.16802 -34.1245,18.64132 -51.1374,28.05192 -16.1965,8.9932 -32.3551,18.0548 -48.4084,27.3012 -17.0337,9.9367 -33.7036,20.4789 -50.4533,30.8825 -16.2139,9.974 -32.4222,19.9571 -48.5212,30.1159 -16.4135,10.422 -32.5855,21.2166 -48.7459,32.0249 -15.7433,10.6294 -31.4059,21.3778 -47.0571,32.1423 -15.0417,10.2206 -29.9407,20.6446 -44.7506,31.1974 -14.71968,10.5772 -29.40128,21.2087 -43.97348,31.9884 -14.7392,10.9579 -29.0396,22.4857 -43.3028,34.051 -15.6467,12.6477 -30.908,25.7597 -46.1561,38.8818 -16.0748,13.8976 -32.1107,27.8402 -48.1504,41.7782 -16.06098,13.8457 -32.21924,27.5776 -48.41946,41.2598 -15.49062,13.1039 -31.0009,26.1845 -46.48908,39.2913 -14.48959,12.3161 -29.09492,24.495 -43.61292,36.7774 -14.88708,12.61639 -29.83095,25.16549 -44.75069,37.74309 -15.16086,12.7226 -30.13672,25.6629 -45.11997,38.5933 -14.68945,12.6829 -29.41485,25.3238 -44.19201,37.9043 -13.96893,11.8859 -28.10092,23.5785 -42.27952,35.2129 -13.6945,11.2435 -27.50504,22.346 -41.34783,33.4063 -13.49138,10.7213 -27.03254,21.3795 -40.60399,31.9991 -12.54251,9.8511 -25.14216,19.6286 -37.78198,29.3543 -11.58106,8.9065 -23.11496,17.8742 -34.57519,26.9357 -10.39432,8.2151 -20.46481,16.8187 -30.1759,25.8287 -6.94061,6.8123 -14.53494,13.4261 -19.06106,22.2136 -0.90193,1.7511 -1.53831,3.6268 -2.30745,5.4402 -2.78138,9.3469 -1.83751,19.2925 4.76227,26.8743 1.16499,1.3383 2.59798,2.4173 3.89698,3.626 9.78253,6.9205 20.88426,5.3137 31.85306,2.9684 10.17281,-2.0503 19.62735,-6.2441 28.8539,-10.8557 9.65846,-4.9193 18.98975,-10.4345 28.19018,-16.1546 9.90556,-6.1833 19.65406,-12.6123 29.5236,-18.8528 11.36847,-7.1214 22.845,-14.0694 34.42624,-20.839 12.42536,-7.2293 24.93514,-14.312 37.41091,-21.4537 13.98893,-8.0098 28.03322,-15.9226 42.09253,-23.8081 15.22292,-8.3764 30.41877,-16.8008 45.55347,-25.3358 16.0876,-9.1484 32.15325,-18.3353 48.20185,-27.5519 17.10455,-9.6794 33.9667,-19.7789 50.76649,-29.9754 17.3018,-10.4825 34.42102,-21.2589 51.47341,-32.1409 17.60626,-11.2543 35.14987,-22.6065 52.77546,-33.8304 17.88005,-11.4234 35.7013,-22.938 53.6018,-34.3294 18.1709,-11.5748 36.4494,-22.9788 54.7896,-34.2829 20.2711,-12.423 40.6949,-24.5939 61.0632,-36.85609 21.3019,-12.8026 42.76918,-25.3259 64.23038,-37.8583 20.712,-12.0486 41.4421,-24.0657 62.1595,-36.1049 19.4691,-11.3796 39.03,-22.6009 58.5836,-33.8343 19.4436,-11.1969 38.8946,-22.3803 58.2713,-33.6925 19.6126,-11.5996 39.1984,-23.2455 58.7347,-34.9733 18.8968,-11.3242 37.7944,-22.6471 56.6994,-33.9577 17.9567,-10.7133 35.9729,-21.3263 54.0341,-31.8621 17.413,-10.1306 34.9002,-20.1328 52.3559,-30.1892 17.6571,-10.0936 35.424,-19.994 53.1492,-29.9673 17.1729,-9.6679 34.4227,-19.1981 51.6179,-28.8262 16.339,-9.0519 32.5504,-18.3307 48.7707,-27.5928 16.1159,-9.0986 32.1282,-18.3786 48.2065,-27.5432 14.9972,-8.5918 30.0987,-16.9942 45.318,-25.1857 13.9894,-7.602 28.1905,-14.8018 42.3977,-21.9847 13.331,-6.7068 26.7517,-13.2325 40.1972,-19.706 12.3789,-5.97108 24.8313,-11.78669 37.2997,-17.56794 12.4389,-5.69322 24.9672,-11.1878 37.4877,-16.69842 11.7758,-5.26348 23.6485,-10.30537 35.5233,-15.34022 10.7222,-4.55648 21.504,-8.96999 32.3553,-13.20962 6.7224,-2.61845 13.7457,-5.31638 21.0784,-4.85982 3.4255,0.0845 6.1996,3.53408 2.0639,0.074 -2.404,-3.37433 -1.1958,-3.65017 -3.9216,0.40004 -5.1263,6.94144 -10.7521,13.51233 -16.6435,19.81237 -9.638,9.25724 -19.6919,18.06899 -29.6271,27.00324 -11.2589,10.00661 -22.4738,20.06167 -33.6148,30.19917 -11.3035,10.3248 -22.5949,20.6625 -33.7912,31.1034 -10.8535,10.0537 -21.6588,20.1577 -32.3164,30.4191 -10.7852,10.4287 -21.233,21.1982 -31.4907,32.144 -10.742,11.4745 -21.1941,23.2152 -31.6442,34.9546 -10.6189,11.9482 -21.3143,23.8278 -32.0247,35.6939 -11.0987,12.159 -22.1236,24.3852 -33.2266,36.5402 -11.2372,12.3011 -22.6111,24.4757 -33.9784,36.6561 -10.4563,11.3109 -21.0679,22.4755 -31.7188,33.6028 -9.7782,10.2792 -19.7572,20.3637 -29.6923,30.4904 -9.3186,9.4964 -18.706,18.9251 -27.9875,28.458 -8.6031,8.7631 -16.7869,17.919 -24.7482,27.2647 -5.6722,7.1536 -11.82,14.316 -15.0586,22.9964 -0.6774,1.8155 -1.1036,3.7149 -1.6555,5.5724 -2.0776,10.3411 0.261,18.5557 6.1002,27.0835 5.3526,7.6822 13.2826,11.3122 22.1249,13.3424 8.8673,1.7237 17.8379,0.8574 26.6899,-0.415 9.3897,-1.2919 18.5096,-3.8039 27.5369,-6.619 9.9259,-3.1038 19.6334,-6.8339 29.306,-10.6393 11.7172,-4.7373 23.3091,-9.7734 34.8462,-14.9312 12.935,-5.8653 25.8156,-11.85 38.7171,-17.7884 13.0278,-6.0043 26.1352,-11.8248 39.3174,-17.4811 13.8951,-5.9755 27.97,-11.5074 42.1109,-16.869 14.5519,-5.4847 29.2154,-10.6643 43.8917,-15.8044 14.3615,-5.1428 29.0072,-9.3907 43.7039,-13.4485 15.4033,-4.3349 30.9835,-7.9884 46.5866,-11.5195 15.5207,-3.408 31.0684,-6.6951 46.6459,-9.8333 15.5242,-3.1003 31.1252,-5.7918 46.7643,-8.2397 17.0232,-2.5976 34.1163,-4.6979 51.1974,-6.8712 16.8007,-2.1168 33.6068,-4.1923 50.3936,-6.4185 15.6695,-1.991 31.2333,-4.6798 46.7552,-7.5855 14.2277,-2.6941 28.3766,-5.7824 42.5073,-8.9409 13.0343,-2.934 26.0595,-5.9102 39.0395,-9.0767 12.218,-2.932 24.3644,-6.1513 36.4955,-9.4209 11.3063,-3.1236 22.5971,-6.3045 33.8346,-9.6678 10.1467,-3.0345 20.2816,-6.1043 30.3643,-9.3457 9.8343,-2.9431 19.1654,-7.136 28.2189,-11.9251 7.9742,-4.1064 14.85,-9.3938 20.2137,-16.574 5.0198,-8.5423 5.4973,-18.5499 -1.2066,-26.5259 -1.4824,-1.7637 -3.5231,-2.9697 -5.2847,-4.4545 -10.5432,-5.8957 -22.5437,-8.2287 -34.1968,-10.9249 -13.6997,-2.9477 -27.5225,-5.2725 -41.349,-7.5318 -14.0938,-2.253 -28.2285,-4.2386 -42.3735,-6.1386 -13.9968,-1.8767 -28.0207,-3.5409 -42.0604,-5.0605 -14.9926,-1.6384 -30.0192,-2.9321 -45.0489,-4.1738 -16.9802,-1.4141 -34.0196,-1.8346 -51.0459,-2.29 -17.9776,-0.5629 -35.9636,-0.6015 -53.9472,-0.4346 -18.1759,0.1769 -36.3479,0.5961 -54.52,0.9903 -18.4802,0.4114 -36.9509,1.1446 -55.4187,1.9216 -18.865,0.7324 -37.7142,1.81 -56.5598,2.9238 -18.2074,1.0093 -36.3862,2.4399 -54.5603,3.9164 -17.6621,1.456 -35.304,3.1471 -52.939,4.8975 -16.3294,1.5896 -32.6492,3.2746 -48.9721,4.929 -14.9838,1.5909 -29.9766,3.0938 -44.9655,4.6353 -14.7548,1.5346 -29.5251,2.9145 -44.3052,4.1807 -15.0148,1.2668 -30.0372,2.4398 -45.0691,3.4843 -16.6296,1.111 -33.2728,2.002 -49.9162,2.8758 -16.9883,0.8364 -33.9657,1.8746 -50.9467,2.8458 -16.535,0.9564 -33.0625,2.023 -49.5835,3.194 -15.647,1.1479 -31.2882,2.3707 -46.9196,3.7137 -16.214,1.3992 -32.3748,3.3355 -48.5455,5.1519 -16.8876,1.8834 -33.7912,3.6195 -50.6837,5.4577 -17.9815,1.9632 -35.9457,4.0839 -53.9077,6.2166 -18.5217,2.1626 -37.0282,4.4522 -55.5277,6.7956 -20.1378,2.6108 -40.208,5.7086 -60.2507,8.9605 -20.8502,3.1679 -41.5367,7.196 -62.1446,11.652 -21.9572,4.8675 -43.8991,9.8035 -65.73458,15.1934 -23.7485,6.0779 -47.4507,12.3375 -71.1184,18.7226 -23.578,6.4691 -47.147,12.9713 -70.71,19.4945 -22.1591,6.0351 -44.25432,12.2997 -66.36918,18.4939 -21.45036,5.9872 -42.90379,11.9628 -64.35042,17.9634 -22.19123,6.2008 -44.38156,12.405 -66.57309,18.6049 -20.17991,5.649 -40.33627,11.3811 -60.47855,17.1627 -18.73624,5.4383 -37.46286,10.9095 -56.23591,16.2198 -19.58594,5.5578 -39.31902,10.5594 -59.12104,15.2806 -19.87944,4.7513 -39.89176,8.9129 -59.9267,12.9473 -19.10063,3.8447 -38.26599,7.353 -57.45664,10.7152 -17.69792,3.0981 -35.42729,6.0101 -53.16564,8.8659 -15.60618,2.5521 -31.24083,4.919 -46.92121,6.9666 -13.5607,1.828 -27.15328,3.182 -40.83882,3.3186 -12.24173,0.063 -24.45325,-0.8471 -36.62133,-2.1014 -10.73291,-1.2681 -21.37632,-3.1733 -31.95897,-5.3453 -9.93065,-2.0478 -19.82334,-4.2656 -29.65371,-6.7502 -9.39083,-2.3343 -18.5545,-5.4678 -27.651192,-8.743 -8.69623,-3.091 -17.16212,-6.756 -25.4639,-10.7762 -7.66255,-3.7424 -15.14789,-7.8325 -22.46225,-12.2136 -5.34682,-3.5922 -11.1617,-6.9182 -15.31348,-11.9429 -1.05441,-2.5647 0.67348,-5.6229 1.90197,-7.8456 6.7898,-11.337 15.05155,-21.6832 23.34225,-31.9386 10.55517,-12.6765 22.41854,-24.1671 34.42621,-35.4452 14.649172,-13.7687 31.100742,-25.373 47.837192,-36.4259 21.29045,-13.9188 43.8986,-25.6084 66.63359,-36.9442 25.12597,-12.3523 50.75649,-23.6396 76.40881,-34.8446 27.10157,-11.5714 54.44528,-22.5652 81.78376,-33.5618 26.90132,-10.795 53.79527,-21.6083 80.68072,-32.4427 27.74518,-11.0425 55.53397,-21.976 83.33463,-32.8781 29.29354,-11.4436 58.6858,-22.6309 88.14438,-33.642 30.23063,-11.2993 60.55933,-22.3337 90.90347,-33.3238 29.49951,-10.6439 58.97974,-21.33987 88.43104,-32.11638 28.19141,-10.37991 56.40121,-20.70959 84.61321,-31.03349 27.899,-10.24101 56.0152,-19.87098 84.2107,-29.25931 29.6804,-9.71373 59.58468,-18.72378 89.56078,-27.47557 31.0672,-8.95722 62.2735,-17.41978 93.4978,-25.80937 30.1941,-8.0195 60.4391,-15.84763 90.7293,-23.49598 28.7955,-7.33785 57.7331,-14.08492 86.7154,-20.63831 34.4427,-7.63002 69.021,-14.63347 103.6405,-21.41054 36.2986,-7.0802 72.7101,-13.54957 109.1755,-19.70602 35.786,-5.99967 71.673,-11.3654 107.6027,-16.42433 36.4065,-5.04022 72.9028,-9.38798 109.4175,-13.55885 38.8892,-4.54178 77.8992,-7.86629 116.9452,-10.69651 41.3658,-2.94695 82.7997,-4.73383 124.2375,-6.27829 39.1229,-1.37734 78.252,-2.53147 117.3987,-2.85595 38.1659,-0.22723 76.329,0.25853 114.4819,1.22125 37.1728,0.75776 74.2846,3.03055 111.3765,5.47779 35.1513,2.27635 70.2231,5.45339 105.2238,9.39356 31.9546,3.71167 63.856,7.86418 95.7181,12.29635 14.4874,2.01907 28.9445,4.24609 43.4042,6.45243 20.9835,3.20169 25.5114,-26.4734 4.5279,-29.67506 v 0 c -14.5904,-2.22618 -29.1783,-4.4726 -43.7967,-6.50967 -32.1212,-4.46736 -64.2819,-8.65422 -96.4965,-12.39426 -35.4602,-3.98932 -70.9922,-7.21099 -106.6046,-9.51675 -37.4981,-2.47364 -75.0164,-4.76552 -112.5961,-5.53339 -38.4884,-0.96955 -76.9871,-1.46084 -115.4885,-1.22973 -39.4362,0.33015 -78.8548,1.48495 -118.267,2.87575 -41.7889,1.55814 -83.5737,3.36266 -125.29,6.33604 -39.4586,2.86172 -78.8809,6.22255 -118.1813,10.81187 -36.7746,4.20095 -73.5307,8.58069 -110.1962,13.65813 -36.2009,5.09789 -72.3587,10.50422 -108.4146,16.55004 -36.7224,6.20047 -73.3907,12.71565 -109.9453,19.84629 -34.9046,6.83361 -69.7679,13.89512 -104.494,21.59054 -29.2257,6.60882 -58.4063,13.41374 -87.444,20.81265 -30.437,7.68585 -60.8289,15.55141 -91.1693,23.61066 -31.4329,8.44571 -62.8475,16.96569 -94.1219,25.98429 -30.3346,8.85758 -60.59658,17.97619 -90.63118,27.80994 -28.4739,9.48205 -56.868,19.20752 -85.0427,29.55003 -28.2118,10.3238 -56.42132,20.65334 -84.6125,31.03319 -29.42038,10.76521 -58.86972,21.44994 -88.33828,32.08259 -30.44024,11.02503 -60.86494,22.09457 -91.19131,33.42977 -29.60858,11.0674 -59.15072,22.3115 -88.59336,33.8139 -27.88781,10.9363 -55.76379,21.9039 -83.5956,32.9818 -26.8795,10.8321 -53.7675,21.6429 -80.66288,32.4356 -27.61128,11.1064 -55.22779,22.2105 -82.59748,33.9031 -26.11795,11.409 -52.21152,22.9066 -77.79037,35.4904 -23.81994,11.8832 -47.49208,24.1632 -69.78941,38.7652 -18.14785,12.0069 -35.959722,24.6407 -51.839792,39.5917 -13.00061,12.2213 -25.82292,24.6936 -37.21907,38.4548 -10.10002,12.5056 -20.28775,25.1351 -27.77453,39.4333 -0.97205,2.6328 -2.18143,5.1898 -2.91616,7.8985 -3.01072,11.0993 -0.44700996,22.4335 6.50987,31.4302 6.49825,6.962 14.02873,12.6902 22.19528,17.5966 8.0816,4.8238 16.33586,9.3539 24.80031,13.4744 9.25336,4.4669 18.68231,8.5551 28.36993,11.9973 10.02124,3.601 20.118942,7.0328 30.462302,9.6011 10.27063,2.5906 20.60284,4.9176 30.97789,7.0529 11.5622,2.3645 23.19001,4.4422 34.91839,5.7992 13.30066,1.3598 26.64832,2.342 40.02844,2.2563 14.87112,-0.1877 29.65128,-1.5543 44.3863,-3.5698 15.97459,-2.0889 31.90399,-4.4933 47.80311,-7.0951 17.87489,-2.8779 35.74068,-5.8126 53.57481,-8.9347 19.4397,-3.4063 38.85373,-6.9607 58.20225,-10.8555 20.38177,-4.105 40.74007,-8.3412 60.96359,-13.1753 20.20632,-4.8195 40.34269,-9.9236 60.32883,-15.5954 18.80993,-5.3212 37.57407,-10.8014 56.34703,-16.2514 20.07405,-5.7621 40.16213,-11.4748 60.27372,-17.1047 22.1952,-6.2009 44.38916,-12.4062 66.58407,-18.608 21.44933,-6.0013 42.90549,-11.9776 64.35853,-17.9656 22.08572,-6.1861 44.15179,-12.4425 66.28179,-18.4696 23.4999,-6.5057 47.0056,-12.9903 70.5202,-19.4426 23.4604,-6.3296 46.9555,-12.5335 70.4953,-18.5617 21.55218,-5.3235 43.21218,-10.1878 64.88438,-14.9966 20.0975,-4.3482 40.2716,-8.2766 60.6067,-11.361 19.6985,-3.1968 39.4236,-6.2429 59.2151,-8.811 18.422,-2.3337 36.8508,-4.6135 55.2948,-6.7669 17.8647,-2.1214 35.7318,-4.2306 53.6158,-6.1834 16.927,-1.8422 33.8649,-3.5813 50.7869,-5.4692 15.9109,-1.7872 31.8117,-3.6948 47.7647,-5.0745 15.4823,-1.3307 30.9744,-2.5409 46.472,-3.6785 16.385,-1.1615 32.7765,-2.2194 49.1754,-3.1679 16.934,-0.9687 33.8647,-2.0041 50.8062,-2.8382 16.8127,-0.8827 33.6251,-1.7833 50.4238,-2.9067 15.1925,-1.0563 30.3756,-2.2406 45.5509,-3.5217 14.9495,-1.2815 29.8892,-2.6761 44.8132,-4.2286 14.9742,-1.5401 29.9523,-3.0412 44.9214,-4.6307 16.3023,-1.6524 32.6016,-3.3354 48.9104,-4.9229 17.4569,-1.7331 34.9206,-3.4072 52.4043,-4.8493 17.9545,-1.4587 35.9136,-2.8739 53.901,-3.87 18.6758,-1.1042 37.3552,-2.1726 56.0503,-2.8981 18.2642,-0.7685 36.5313,-1.4948 54.8079,-1.9021 18.0483,-0.3916 36.0966,-0.8086 54.1487,-0.9845 17.6229,-0.165 35.2482,-0.1276 52.8651,0.4251 16.4693,0.4402 32.9518,0.8356 49.3769,2.1988 14.7768,1.2205 29.5508,2.4908 44.291,4.1015 13.784,1.491 27.5521,3.1258 41.2939,4.9677 13.8633,1.8616 27.7162,3.8068 41.5295,6.0129 13.1831,2.1531 26.3628,4.3659 39.4295,7.1537 7.9293,1.8303 15.8983,3.6892 23.6271,6.1888 -1.8233,-2.8793 -3.8247,-7.6471 -0.924,-10.5264 -1.7754,2.9026 -6.344,5.0998 -9.5436,7.0545 -7.4781,3.9862 -15.186,7.4568 -23.3347,9.8626 -9.8894,3.1813 -19.832,6.1875 -29.7844,9.1655 -10.9721,3.2862 -21.9983,6.3879 -33.0374,9.4412 -11.8995,3.2079 -23.8139,6.3666 -35.7989,9.2421 -12.7909,3.1221 -25.6279,6.0511 -38.4723,8.9441 -13.7905,3.0832 -27.5987,6.0992 -41.4838,8.7307 -14.9976,2.8097 -30.0353,5.412 -45.1766,7.3331 -16.734,2.2198 -33.4876,4.2872 -50.2358,6.398 -17.3668,2.2098 -34.7457,4.3473 -52.0532,6.9927 -16.0683,2.5181 -32.0984,5.2814 -48.0487,8.4696 -15.8103,3.1861 -31.591,6.5208 -47.3433,9.9825 -16.0602,3.6356 -32.0956,7.4018 -47.9508,11.862 -15.3467,4.2392 -30.6371,8.6875 -45.6358,14.0528 -14.9175,5.2248 -29.8218,10.4911 -44.6124,16.0672 -14.542,5.5149 -29.0156,11.2063 -43.305,17.3514 -13.4211,5.7597 -26.7667,11.6854 -40.0311,17.7984 -12.8023,5.8927 -25.584,11.8309 -38.4187,17.6531 -11.1203,4.9728 -22.2934,9.8278 -33.5849,14.4013 -9.0023,3.5428 -18.0322,7.0292 -27.2698,9.9215 -7.5162,2.3556 -15.0947,4.5018 -22.9207,5.5674 -5.3774,0.8022 -10.8416,1.5848 -16.2658,0.7229 -0.5937,-0.072 -2.3697,-0.4505 -2.4622,-0.3427 -0.099,0.1155 0.3176,0.4562 0.1684,0.4249 -0.3129,-0.066 -1.3601,-1.3178 -1.4331,-1.3988 -0.7996,-0.9912 -1.4877,-0.5839 -1.5404,-2.1219 0.4273,-6.1373 7.3892,-11.8641 10.5263,-16.699 7.5255,-8.8413 15.2653,-17.4999 23.402,-25.7865 9.2541,-9.5059 18.6161,-18.9057 27.9069,-28.3755 10.0214,-10.2148 20.0865,-20.3876 29.9497,-30.7561 10.7383,-11.2187 21.4366,-22.4751 31.9794,-33.8785 11.4404,-12.2586 22.887,-24.5118 34.1963,-36.892 11.1426,-12.1991 22.2081,-24.4687 33.3461,-36.672 10.7568,-11.9173 21.4982,-23.8484 32.163,-35.8482 10.2804,-11.5488 20.5613,-23.1004 31.1281,-34.3894 9.9035,-10.5724 19.9935,-20.9717 30.4065,-31.0449 10.5415,-10.1513 21.2327,-20.1432 31.9681,-30.089 11.1064,-10.3579 22.3086,-20.6118 33.5211,-30.8545 11.0973,-10.0982 22.2695,-20.1129 33.4839,-30.0809 10.5929,-9.52595 21.3406,-18.89595 31.5223,-28.86565 7.2159,-7.7741 14.195,-15.82409 20.2481,-24.54872 6.4046,-10.81731 9.4546,-20.42863 3.5771,-32.39105 -1.4156,-1.77213 -2.6431,-3.7123 -4.2466,-5.31637 -5.8705,-5.87289 -14.647,-7.71829 -22.5513,-8.50317 -11.2754,0.01 -22.1229,2.43511 -32.4984,6.91492 -11.1159,4.34508 -22.1627,8.86314 -33.1467,13.532 -12.0001,5.08801 -23.9976,10.18391 -35.8981,15.50217 -12.6995,5.58949 -25.407,11.16297 -38.0226,16.94009 -12.6002,5.84261 -25.1843,11.72023 -37.6943,17.75443 -13.6202,6.55778 -27.2152,13.16904 -40.7194,19.96364 -14.4366,7.29901 -28.8657,14.61751 -43.0813,22.34151 -15.4327,8.3077 -30.7478,16.8263 -45.9559,25.539 -16.0843,9.169 -32.1038,18.4516 -48.226,27.5544 -16.1472,9.2205 -32.2855,18.4578 -48.5511,27.4686 -17.2133,9.6383 -34.4813,19.1783 -51.672,28.8567 -17.8139,10.0231 -35.6697,19.9728 -53.4144,30.1182 -17.5026,10.0835 -35.0369,20.1124 -52.4964,30.2706 -18.1569,10.5919 -36.2688,21.2609 -54.3204,32.0313 -18.9178,11.3183 -37.8283,22.6489 -56.738,33.9808 -19.4312,11.665 -38.9122,23.2479 -58.4188,34.7863 -19.3164,11.2772 -38.7072,22.4253 -58.0902,33.5876 -19.5967,11.2582 -39.2006,22.5043 -58.7125,33.9089 -20.7357,12.0498 -41.4843,24.0774 -62.2144,36.1368 -21.57678,12.5999 -43.15938,25.1912 -64.57568,38.063 -20.4581,12.3163 -40.9718,24.5407 -61.3315,37.01959 -18.4624,11.3799 -36.8632,22.8597 -55.1552,34.512 -17.90301,11.3933 -35.72741,22.9087 -53.60972,34.3344 -17.63339,11.2296 -35.18585,22.5857 -52.79977,33.8458 -16.86246,10.7615 -33.79109,21.4185 -50.9005,31.7843 -16.59213,10.0716 -33.24613,20.0467 -50.14026,29.6056 -15.98072,9.1777 -31.97848,18.3257 -47.99778,27.4359 -15.11426,8.5236 -30.29084,16.9348 -45.49255,25.3015 -14.13567,7.9286 -28.25647,15.8842 -42.32137,23.9378 -12.5548,7.1871 -25.14422,14.3144 -37.64781,21.5907 -11.88128,6.947 -23.65722,14.0736 -35.31965,21.3824 -9.8068,6.202 -19.4964,12.5864 -29.33654,18.7355 -8.42111,5.2423 -16.96067,10.2991 -25.79864,14.8141 -6.96522,3.5134 -14.05768,6.8161 -21.76424,8.3512 -4.48545,0.9973 -1.88291,0.4616 -6.03165,1.231 -0.65096,0.1207 -2.19735,-0.076 -1.916,0.5233 0.29692,0.6324 1.40615,0.6187 1.53664,1.4252 0.17344,0.2913 1.72465,4.2197 0.42352,4.0185 -0.16735,-0.026 -0.10711,-0.3213 -0.16068,-0.4819 1.49084,-6.7276 9.59843,-11.5639 13.80732,-16.5087 9.12051,-8.4788 18.60142,-16.5499 28.36736,-24.2783 11.35603,-8.9798 22.78634,-17.8652 34.26218,-26.6915 12.70443,-9.7754 25.36848,-19.6028 37.97519,-29.5041 13.65154,-10.6824 27.27251,-21.4035 40.8433,-32.1884 13.94419,-11.1421 27.85657,-22.3256 41.65147,-33.6522 14.31859,-11.7497 28.59007,-23.558 42.69692,-35.5617 14.8282,-12.6241 29.60475,-25.3086 44.34497,-38.0353 14.89564,-12.8551 29.78348,-25.7201 44.85584,-38.3681 14.93321,-12.589 29.89054,-25.1494 44.79103,-37.7772 14.51866,-12.2835 29.12546,-24.46249 43.6157,-36.77989 15.48076,-13.1004 30.98361,-26.1747 46.46676,-39.2724 16.30777,-13.7731 32.57316,-27.5963 48.74026,-41.5345 16.0034,-13.9066 32.0032,-27.8176 48.0414,-41.684 15.026,-12.9312 30.0631,-25.8546 45.4817,-38.3184 13.9181,-11.2858 27.8691,-22.5393 42.2497,-33.2352 14.42768,-10.6748 28.96658,-21.199 43.53998,-31.6737 14.6743,-10.4564 29.4373,-20.7845 44.3417,-30.9111 15.5441,-10.6909 31.0996,-21.3658 46.7346,-31.9234 15.9396,-10.6608 31.8896,-21.3095 48.0779,-31.591 16.0377,-10.1217 32.1872,-20.0639 48.3392,-30.0019 16.4676,-10.2284 32.8557,-20.5945 49.5982,-30.3709 15.9023,-9.1608 31.9109,-18.1351 47.9549,-27.0451 16.9294,-9.3645 33.8245,-18.7919 50.8863,-27.9146 17.1962,-9.299 34.4289,-18.53136 51.5502,-27.96783 17.4782,-9.71825 34.9485,-19.45079 52.3527,-29.30093 16.9952,-9.68706 33.8935,-19.54236 50.7302,-29.50229 16.2167,-9.56204 32.3985,-19.18474 48.4709,-28.9877 14.1496,-8.77265 28.1619,-17.76342 42.1639,-26.76947 13.9946,-9.01564 27.9622,-18.0731 41.9274,-27.13419 14.3381,-9.34161 28.7374,-18.58916 43.045,-27.97743 14.1247,-9.29067 28.2654,-18.55741 42.3304,-27.93845 14.2488,-9.45 28.4744,-18.9354 42.7841,-28.29307 14.5387,-9.49659 29.1216,-18.92305 43.9268,-28.00136 15.6492,-9.71236 31.2802,-19.45491 47.0249,-29.01214 15.7384,-9.54441 31.5451,-18.97397 47.4358,-28.26298 15.5578,-9.05652 31.1617,-18.03066 46.8459,-26.86701 13.9724,-7.87921 27.9937,-15.67676 42.2678,-23.00049 13.9531,-7.07628 28.0249,-13.91663 42.1235,-20.69761 15.1606,-7.31161 30.3488,-14.56539 45.6173,-21.64959 15.6031,-7.28958 31.2162,-14.5718 46.5214,-22.474483 12.455,-6.56394 24.7,-13.53653 36.0576,-21.8977 9.606,-6.83988 19.1336,-13.81152 28.2014,-21.35823 7.0671,-6.02196 14.0601,-12.32209 19.1823,-20.14934 1.889,-3.5168 4.4142,-7.31785 4.1317,-11.59757 -0.758,-11.4773002 -6.5998,-16.6555502 -16.795,-19.2337202 -8.584,-1.76043 -17.2972,-2.21652 -26.038,-1.40902 -11.4312,1.25952 -22.6062,3.83889 -33.6083,7.18428 -11.2605,3.2572402 -22.4592,6.7211902 -33.5755,10.4425002 -12.1958,4.0504 -24.3686,8.17213 -36.4597,12.52631 -13.1576,4.74123 -26.3064,9.5119 -39.2836,14.73286 -13.8031,5.50941 -27.5912,11.06143 -41.2313,16.96594 -14.7786,6.38383 -29.5356,12.8169 -44.2668,19.309 -16.3313,7.20324 -32.6657,14.39939 -48.9952,21.606913 -17.587,7.76871 -35.1222,15.65447 -52.5899,23.68817 -18.5143,8.53003 -36.9689,17.19179 -55.3185,26.07115 -18.9975,9.26094 -37.878,18.75712 -56.7117,28.34662 -20.3627,10.44301 -40.6549,21.02208 -60.8922,31.70631 -21.5777,11.39829 -43.1735,22.76712 -64.5471,34.54582 -20.4269,11.36418 -40.6954,23.01097 -60.834,34.87885 -19.8853,11.80307 -39.7664,23.61366 -59.5921,35.51668 -20.7613,12.39745 -41.5317,24.77992 -62.2672,37.22042 -20.0263,12.06761 -40.0562,24.12939 -60.088,36.18805 -20.0911,12.01187 -40.2054,23.98499 -60.2505,36.07357 -19.1049,11.51624 -38.1852,23.07296 -57.2991,34.5742 -18.9675,11.45263 -37.929,22.91593 -57.0141,34.17221 -19.7856,11.74244 -39.5567,23.50914 -59.278,35.35947 -18.8862,11.25738 -37.7121,22.61258 -56.4753,34.07388 -18.7571,11.3602 -37.5747,22.6211 -56.2476,34.1201 -19.1828,11.8407 -38.34908,23.7089 -57.42518,35.7212 -19.4784,12.3198 -38.8539,24.8006 -58.2419,37.262 -19.3963,12.5112 -38.8083,25.0007 -57.938,37.9182 -18.507,12.4293 -36.98635,24.8997 -55.40383,37.4614 -18.32103,12.4565 -36.66959,24.8726 -55.04575,37.2476 -17.74811,11.9671 -35.47047,23.9725 -53.25358,35.8874 -17.42918,11.5977 -34.92193,23.0989 -52.51792,34.4423 -17.26334,11.1309 -34.57468,22.1881 -52.03423,33.0095 -16.70151,10.3124 -33.44368,20.561 -50.38594,30.4748 -15.58137,9.0641 -31.26937,17.9549 -47.22379,26.3489 -15.86713,8.3649 -31.81462,16.576 -47.8399,24.634 -14.19225,7.0331 -28.45378,13.924 -42.74061,20.7629 -12.55246,5.9629 -25.19719,11.72129 -37.89045,17.37799 -11.18358,4.965 -22.39794,9.8645 -33.74299,14.4514 -9.37998,3.8049 -18.80518,7.5033 -28.39277,10.7588 -8.34649,2.8092 -16.71338,5.5939 -25.25292,7.7668 -7.07816,1.7689 -14.1689,3.6186 -21.42735,4.4863 -1.24764,0.1249 -2.90813,0.3269 -4.20632,0.3424 -0.884,0.011 -2.1357,-0.1521 -2.09765,0.01 0.18764,0.7921 2.06106,0.5338 1.77117,1.6812 2.81509,4.5177 0.70323,3.3968 0.6309,-0.4076 -0.0485,-4.9681 1.29803,-9.7973 2.56536,-14.5635 2.0708,-7.1412 4.60743,-14.1438 7.73089,-20.8969 3.92525,-8.4455 8.24859,-16.69619 13.07987,-24.66279 5.56078,-9.3605 11.22316,-18.6634 17.2192,-27.7532 6.7155,-10.1659 13.58793,-20.23 20.8228,-30.0355 7.65314,-10.4794 15.58038,-20.7535 23.8099,-30.7881 8.77417,-10.6903 17.55559,-21.3752 26.47904,-31.9416 9.32493,-11.0038 18.69749,-21.967 27.99162,-32.9968 9.2674,-10.8837 18.63245,-21.6826 28.04647,-32.4396 9.45458,-10.8183 18.8456,-21.6912 28.23755,-32.5639 9.58284,-11.0141 19.18442,-22.0124 28.9374,-32.8767 10.09436,-11.2247 20.21483,-22.426 30.46154,-33.5122 10.61261,-11.5463 21.24553,-23.074 31.9475,-34.5375 11.2253,-12.0167 22.49097,-23.9957 33.67395,-36.0518 11.2591,-12.1429 22.42989,-24.3646 33.37598,-36.7915 10.73522,-11.9836 21.42286,-24.0091 32.03655,-36.1005 10.90138,-12.3637 21.97539,-24.5697 33.08072,-36.75017 10.84243,-12.06313 21.58541,-24.21493 32.42589,-36.27975 9.63508,-10.77077 19.31463,-21.50226 29.15388,-32.08747 7.89229,-8.40174 15.8087,-16.78174 23.83841,-25.05253 7.07485,-7.33547 14.14412,-14.67663 21.14562,-22.08234 6.5929,-7.00589 13.1853,-14.01207 19.76795,-21.02756 6.52057,-6.90774 13.02726,-13.82887 19.61817,-20.66974 5.76687,-5.9667 11.52437,-11.9446 17.50527,-17.69918 5.2029,-5.01733 10.4946,-9.94659 16.094,-14.52335 4.833,-4.00991 9.7006,-7.97756 14.6999,-11.77988 4.2314,-3.22065 8.457,-6.45442 12.843,-9.46374 2.2756,-1.53951 4.5699,-3.06196 6.9892,-4.36923 18.9854,-9.49267 5.5607,-36.34207 -13.4246,-26.84939 z" /></g></svg>
